<svg xmlns="http://www.w3.org/2000/svg" xmlns:xlink="http://www.w3.org/1999/xlink" width="378.13" height="344" viewBox="0 0 378.13 344"><defs><clipPath id="a"><rect width="378.13" height="344" rx="20.78" transform="translate(0 41.26)" fill="none"/></clipPath><linearGradient id="b" x1="0.5" y1="1" x2="0.5" gradientUnits="objectBoundingBox"><stop offset="0" stop-color="#cf9b2c"/><stop offset="0.01" stop-color="#be8c27"/><stop offset="0.03" stop-color="#a0711f"/><stop offset="0.05" stop-color="#885c19"/><stop offset="0.07" stop-color="#774d15"/><stop offset="0.1" stop-color="#6d4412"/><stop offset="0.13" stop-color="#6a4111"/><stop offset="0.15" stop-color="#6e4413"/><stop offset="0.54" stop-color="#ca8b39"/><stop offset="0.55" stop-color="#cd9241"/><stop offset="0.67" stop-color="#e8ca89"/><stop offset="0.76" stop-color="#f9edb6"/><stop offset="0.8" stop-color="#fffbc7"/><stop offset="0.99" stop-color="#fdc53e"/></linearGradient><radialGradient id="c" cx="0.358" cy="0.524" r="0.524" gradientTransform="translate(-41.727 -0.559) rotate(180) scale(1.046 1)" gradientUnits="objectBoundingBox"><stop offset="0" stop-color="#ff2626"/><stop offset="0.14" stop-color="#cf1f1f"/><stop offset="0.38" stop-color="#871414"/><stop offset="0.59" stop-color="#4d0b0b"/><stop offset="0.77" stop-color="#230505"/><stop offset="0.92" stop-color="#090101"/><stop offset="1"/></radialGradient><linearGradient id="d" x1="0.795" y1="-0.427" x2="0.205" y2="1.427" gradientUnits="objectBoundingBox"><stop offset="0" stop-color="#fff"/><stop offset="0.65" stop-color="#fff" stop-opacity="0"/></linearGradient><linearGradient id="e" x1="0.827" y1="-0.267" x2="0.173" y2="1.267" xlink:href="#d"/><radialGradient id="f" cx="0.499" cy="0.577" r="26.983" gradientTransform="translate(-1.884 25.152) scale(0.024 0.025)" gradientUnits="objectBoundingBox"><stop offset="0" stop-color="#ffa800"/><stop offset="0.07" stop-color="#d38b00" stop-opacity="0.831"/><stop offset="0.16" stop-color="#a26b00" stop-opacity="0.639"/><stop offset="0.26" stop-color="#774e00" stop-opacity="0.471"/><stop offset="0.36" stop-color="#523600" stop-opacity="0.322"/><stop offset="0.47" stop-color="#342200" stop-opacity="0.2"/><stop offset="0.58" stop-color="#1d1300" stop-opacity="0.11"/><stop offset="0.7" stop-color="#0d0800" stop-opacity="0.051"/><stop offset="0.83" stop-color="#030200" stop-opacity="0.012"/><stop offset="1" stop-opacity="0"/></radialGradient><radialGradient id="g" cx="0.503" cy="0.577" r="20.108" gradientTransform="translate(-2.399 24.934) scale(0.032 0.033)" xlink:href="#f"/><radialGradient id="h" cx="0.507" cy="0.542" r="5.029" gradientTransform="translate(1.126 10.396) scale(0.128 0.132)" gradientUnits="objectBoundingBox"><stop offset="0" stop-color="#ffff87"/><stop offset="0.02" stop-color="#f2f280" stop-opacity="0.949"/><stop offset="0.09" stop-color="#c0c066" stop-opacity="0.749"/><stop offset="0.17" stop-color="#92924d" stop-opacity="0.569"/><stop offset="0.25" stop-color="#6b6b39" stop-opacity="0.42"/><stop offset="0.34" stop-color="#4a4a27" stop-opacity="0.29"/><stop offset="0.44" stop-color="#2f2f19" stop-opacity="0.18"/><stop offset="0.54" stop-color="#1a1a0e" stop-opacity="0.102"/><stop offset="0.65" stop-color="#0b0b06" stop-opacity="0.039"/><stop offset="0.79" stop-color="#030301" stop-opacity="0.012"/><stop offset="1" stop-opacity="0"/></radialGradient><radialGradient id="i" cx="0.708" cy="0.503" r="0.799" gradientTransform="translate(10.791 0.445) scale(0.83 0.818)" gradientUnits="objectBoundingBox"><stop offset="0" stop-color="#ffa800"/><stop offset="0.01" stop-color="#faa500" stop-opacity="0.98"/><stop offset="0.09" stop-color="#c68300" stop-opacity="0.78"/><stop offset="0.17" stop-color="#976400" stop-opacity="0.588"/><stop offset="0.26" stop-color="#6e4900" stop-opacity="0.431"/><stop offset="0.35" stop-color="#4c3200" stop-opacity="0.302"/><stop offset="0.45" stop-color="#302000" stop-opacity="0.188"/><stop offset="0.55" stop-color="#1b1200" stop-opacity="0.11"/><stop offset="0.67" stop-color="#0c0800" stop-opacity="0.051"/><stop offset="0.8" stop-color="#030200" stop-opacity="0.012"/><stop offset="1" stop-opacity="0"/></radialGradient><radialGradient id="j" cx="0.708" cy="-19.573" r="12.822" gradientTransform="translate(60.043 -4061.769) scale(0.052 0.091)" gradientUnits="objectBoundingBox"><stop offset="0" stop-color="#ffffe2"/><stop offset="0.01" stop-color="#fafade" stop-opacity="0.98"/><stop offset="0.09" stop-color="#c6c6b0" stop-opacity="0.78"/><stop offset="0.17" stop-color="#979786" stop-opacity="0.588"/><stop offset="0.26" stop-color="#6e6e62" stop-opacity="0.431"/><stop offset="0.35" stop-color="#4c4c44" stop-opacity="0.302"/><stop offset="0.45" stop-color="#30302b" stop-opacity="0.188"/><stop offset="0.55" stop-color="#1b1b18" stop-opacity="0.11"/><stop offset="0.67" stop-color="#0c0c0a" stop-opacity="0.051"/><stop offset="0.8" stop-color="#030302" stop-opacity="0.012"/><stop offset="1" stop-opacity="0"/></radialGradient><radialGradient id="k" cx="-1.93" cy="440.228" r="7.393" gradientTransform="translate(0.488) scale(0.024 1)" xlink:href="#f"/><radialGradient id="l" cx="0.503" cy="1.939" r="20.108" gradientTransform="translate(-2.399 425.661) scale(0.032 0.033)" xlink:href="#f"/><radialGradient id="m" cx="1.292" cy="243.831" r="7.396" gradientTransform="translate(0.436) scale(0.128 1)" xlink:href="#h"/><radialGradient id="n" cx="63.33" cy="43.367" r="7.262" gradientTransform="translate(0.085) scale(0.83 1)" xlink:href="#i"/><radialGradient id="o" cx="63.33" cy="7026.438" r="116.561" gradientTransform="translate(0.474) scale(0.052 1)" xlink:href="#j"/></defs><g transform="translate(0 -41.26)" style="isolation:isolate"><g clip-path="url(#a)"><rect width="378.13" height="344" rx="20.78" transform="translate(0 41.26)" fill="#111"/><path d="M357.36,2a18.79,18.79,0,0,1,18.77,18.78V323.22A18.79,18.79,0,0,1,357.36,342H20.78A18.8,18.8,0,0,1,2,323.22V20.78A18.8,18.8,0,0,1,20.78,2H357.36m0-2H20.78A20.78,20.78,0,0,0,0,20.78V323.22A20.78,20.78,0,0,0,20.78,344H357.36a20.77,20.77,0,0,0,20.77-20.78V20.78A20.77,20.77,0,0,0,357.36,0Z" transform="translate(0 41.26)" fill="url(#b)"/><path d="M141.73,89.9h93.39v76.85s-1.43,6.84-6.85,6.84h-10.4v24.66s-.43,10.41-10.41,10.41-10.41-10.41-10.41-10.41V174.3H180V199s.14,9.41-10.7,9.27c0,0-10-.14-10-10v-24.4H149.15s-7.42.43-7.42-7.41Z" transform="translate(0 41.26)" fill="#72be49"/><path d="M241.32,100s0-10.12,10.12-10.12,10.19,8.7,10.19,10.19V144.2s1,9.51-9.51,9.51-10.8-6.94-10.8-9.94Z" transform="translate(0 41.26)" fill="#72be49"/><path d="M114.65,100s0-10.12,10.12-10.12S135,98.6,135,100.09v44.13s1,9.51-9.52,9.51-10.79-6.94-10.79-9.94Z" transform="translate(0 41.26)" fill="#72be49"/><path d="M211,50.31l8.08-12c1.36-1.93-.35-2.39-.35-2.39-1.13-.91-2,.68-2,.68l-8.38,12.46a53.39,53.39,0,0,0-39.4-.11c-2.51-3.63-9-13-9.49-13.26s-1.36.35-1.36.35c-1.48,1.13-.8,1.7-.8,1.7l8.52,12.58c-13,6.32-22.37,18.05-24.17,32.41h93.46C233.34,68.38,224.11,56.62,211,50.31Z" transform="translate(0 41.26)" fill="#72be49"/><path d="M213.74,65a5.21,5.21,0,1,1-5.2-5.2,5.21,5.21,0,0,1,5.2,5.2Z" transform="translate(0 41.26)" fill="#fff"/><path d="M173.74,65a5.21,5.21,0,1,1-5.2-5.2A5.21,5.21,0,0,1,173.74,65Z" transform="translate(0 41.26)" fill="#fff"/><text transform="translate(136.18 294.19)" fill="#e0cb73" font-size="21" font-family="Prompt-Medium, Prompt" font-weight="500"><tspan x="0" y="0">เข้าสู่ </tspan><tspan y="0">Joker</tspan></text><text transform="translate(98.91 338.48)" fill="#fff" font-size="46" font-family="Prompt-Light, Prompt" font-weight="300"><tspan x="0" y="0">Android</tspan></text><path d="M152.13,206.86A125.9,125.9,0,0,0,202,249H308.33A125.36,125.36,0,1,0,152.13,64.07Z" transform="translate(0 41.26)" opacity="0.36" fill="url(#c)" style="mix-blend-mode:screen;isolation:isolate"/><path d="M331.01,43.82,153.25,171.26H5.22L222.98,43.82Z" fill-rule="evenodd" opacity="0.44" fill="url(#d)" style="mix-blend-mode:overlay;isolation:isolate"/><path d="M347.17,43.82,214.67,171.26H104.31L302.09,43.82Z" fill-rule="evenodd" opacity="0.51" fill="url(#e)" style="mix-blend-mode:overlay;isolation:isolate"/><path d="M372.13,1.73c0,2.39-81.27,4.33-181.53,4.33S9.06,4.12,9.06,1.73,90.33-2.6,190.6-2.6,372.13-.66,372.13,1.73Z" transform="translate(0 41.26)" fill="url(#f)" style="mix-blend-mode:screen;isolation:isolate"/><path d="M326,1.73c0,2.39-60.6,4.33-135.36,4.33S55.23,4.12,55.23,1.73,115.83-2.6,190.6-2.6,326-.66,326,1.73Z" transform="translate(0 41.26)" fill="url(#g)" style="mix-blend-mode:screen;isolation:isolate"/><ellipse cx="60.24" cy="7.74" rx="60.24" ry="7.74" transform="translate(130.36 35.25)" fill="url(#h)" style="mix-blend-mode:screen;isolation:isolate"/><ellipse cx="51.82" cy="42.99" rx="51.82" ry="42.99" transform="translate(138.78 0)" fill="url(#i)" style="mix-blend-mode:screen;isolation:isolate"/><ellipse cx="51.82" cy="2.69" rx="51.82" ry="2.69" transform="translate(138.78 40.3)" fill="url(#j)" style="mix-blend-mode:color-dodge;isolation:isolate"/><path d="M372.13,343.73c0,2.39-81.27,4.33-181.53,4.33S9.06,346.12,9.06,343.73s81.27-4.33,181.54-4.33S372.13,341.34,372.13,343.73Z" transform="translate(0 41.26)" fill="url(#k)" style="mix-blend-mode:screen;isolation:isolate"/><path d="M326,343.73c0,2.39-60.6,4.33-135.36,4.33s-135.37-1.94-135.37-4.33,60.6-4.33,135.37-4.33S326,341.34,326,343.73Z" transform="translate(0 41.26)" fill="url(#l)" style="mix-blend-mode:screen;isolation:isolate"/><ellipse cx="60.24" cy="7.74" rx="60.24" ry="7.74" transform="translate(130.36 377.25)" fill="url(#m)" style="mix-blend-mode:screen;isolation:isolate"/><ellipse cx="51.82" cy="42.99" rx="51.82" ry="42.99" transform="translate(138.78 342)" fill="url(#n)" style="mix-blend-mode:screen;isolation:isolate"/><ellipse cx="51.82" cy="2.69" rx="51.82" ry="2.69" transform="translate(138.78 382.3)" fill="url(#o)" style="mix-blend-mode:color-dodge;isolation:isolate"/></g></g></svg>