<svg xmlns="http://www.w3.org/2000/svg" xmlns:xlink="http://www.w3.org/1999/xlink" width="378.13" height="344" viewBox="0 0 378.13 344"><defs><clipPath id="a"><rect width="378.13" height="344" rx="20.81" transform="translate(0 41.26)" fill="none"/></clipPath><linearGradient id="b" x1="0.5" y1="1" x2="0.5" gradientUnits="objectBoundingBox"><stop offset="0" stop-color="#cf9b2c"/><stop offset="0.01" stop-color="#be8c27"/><stop offset="0.03" stop-color="#a0711f"/><stop offset="0.05" stop-color="#885c19"/><stop offset="0.07" stop-color="#774d15"/><stop offset="0.1" stop-color="#6d4412"/><stop offset="0.13" stop-color="#6a4111"/><stop offset="0.15" stop-color="#6e4413"/><stop offset="0.54" stop-color="#ca8b39"/><stop offset="0.55" stop-color="#cd9241"/><stop offset="0.67" stop-color="#e8ca89"/><stop offset="0.76" stop-color="#f9edb6"/><stop offset="0.8" stop-color="#fffbc7"/><stop offset="0.99" stop-color="#fdc53e"/></linearGradient><radialGradient id="c" cx="-0.002" cy="-0.001" r="1.165" gradientTransform="translate(-0.091) scale(1.183 1)" gradientUnits="objectBoundingBox"><stop offset="0"/><stop offset="1"/></radialGradient><radialGradient id="d" cx="-0.004" cy="-0.16" r="1.152" gradientTransform="translate(-0.502) scale(2.003 1)" xlink:href="#c"/><radialGradient id="e" cx="-0.009" cy="-0.005" r="3.8" gradientTransform="translate(0.366) scale(0.268 1)" gradientUnits="objectBoundingBox"><stop offset="0" stop-color="#3e2723"/><stop offset="1" stop-color="#3e2723"/></radialGradient><radialGradient id="f" cx="0.381" cy="0.524" r="0.524" gradientTransform="translate(-31.913 -0.659) rotate(180) scale(1.046 1)" gradientUnits="objectBoundingBox"><stop offset="0" stop-color="#ff2626"/><stop offset="0.14" stop-color="#cf1f1f"/><stop offset="0.38" stop-color="#871414"/><stop offset="0.59" stop-color="#4d0b0b"/><stop offset="0.77" stop-color="#230505"/><stop offset="0.92" stop-color="#090101"/><stop offset="1"/></radialGradient><linearGradient id="g" x1="0.795" y1="-0.427" x2="0.205" y2="1.427" gradientUnits="objectBoundingBox"><stop offset="0" stop-color="#fff"/><stop offset="0.65" stop-color="#fff" stop-opacity="0"/></linearGradient><linearGradient id="h" x1="0.827" y1="-0.267" x2="0.173" y2="1.267" xlink:href="#g"/><radialGradient id="i" cx="0.5" cy="0.577" r="26.983" gradientTransform="translate(-0.262 25.152) scale(0.024 0.025)" gradientUnits="objectBoundingBox"><stop offset="0" stop-color="#ffa800"/><stop offset="0.07" stop-color="#d38b00" stop-opacity="0.831"/><stop offset="0.16" stop-color="#a26b00" stop-opacity="0.639"/><stop offset="0.26" stop-color="#774e00" stop-opacity="0.471"/><stop offset="0.36" stop-color="#523600" stop-opacity="0.322"/><stop offset="0.47" stop-color="#342200" stop-opacity="0.2"/><stop offset="0.58" stop-color="#1d1300" stop-opacity="0.11"/><stop offset="0.7" stop-color="#0d0800" stop-opacity="0.051"/><stop offset="0.83" stop-color="#030200" stop-opacity="0.012"/><stop offset="1" stop-opacity="0"/></radialGradient><radialGradient id="j" cx="0.5" cy="0.577" r="20.108" gradientTransform="translate(-0.52 24.934) scale(0.032 0.033)" xlink:href="#i"/><radialGradient id="k" cx="0.497" cy="0.542" r="5.029" gradientTransform="translate(-1.74 10.396) scale(0.128 0.132)" gradientUnits="objectBoundingBox"><stop offset="0" stop-color="#ffff87"/><stop offset="0.02" stop-color="#f2f280" stop-opacity="0.949"/><stop offset="0.09" stop-color="#c0c066" stop-opacity="0.749"/><stop offset="0.17" stop-color="#92924d" stop-opacity="0.569"/><stop offset="0.25" stop-color="#6b6b39" stop-opacity="0.42"/><stop offset="0.34" stop-color="#4a4a27" stop-opacity="0.29"/><stop offset="0.44" stop-color="#2f2f19" stop-opacity="0.18"/><stop offset="0.54" stop-color="#1a1a0e" stop-opacity="0.102"/><stop offset="0.65" stop-color="#0b0b06" stop-opacity="0.039"/><stop offset="0.79" stop-color="#030301" stop-opacity="0.012"/><stop offset="1" stop-opacity="0"/></radialGradient><radialGradient id="l" cx="0.492" cy="0.503" r="0.799" gradientTransform="translate(-0.638 0.445) scale(0.83 0.818)" gradientUnits="objectBoundingBox"><stop offset="0" stop-color="#ffa800"/><stop offset="0.01" stop-color="#faa500" stop-opacity="0.98"/><stop offset="0.09" stop-color="#c68300" stop-opacity="0.78"/><stop offset="0.17" stop-color="#976400" stop-opacity="0.588"/><stop offset="0.26" stop-color="#6e4900" stop-opacity="0.431"/><stop offset="0.35" stop-color="#4c3200" stop-opacity="0.302"/><stop offset="0.45" stop-color="#302000" stop-opacity="0.188"/><stop offset="0.55" stop-color="#1b1200" stop-opacity="0.11"/><stop offset="0.67" stop-color="#0c0800" stop-opacity="0.051"/><stop offset="0.8" stop-color="#030200" stop-opacity="0.012"/><stop offset="1" stop-opacity="0"/></radialGradient><radialGradient id="m" cx="0.492" cy="-19.573" r="12.822" gradientTransform="translate(-3.549 -4061.769) scale(0.052 0.091)" gradientUnits="objectBoundingBox"><stop offset="0" stop-color="#ffffe2"/><stop offset="0.01" stop-color="#fafade" stop-opacity="0.98"/><stop offset="0.09" stop-color="#c6c6b0" stop-opacity="0.78"/><stop offset="0.17" stop-color="#979786" stop-opacity="0.588"/><stop offset="0.26" stop-color="#6e6e62" stop-opacity="0.431"/><stop offset="0.35" stop-color="#4c4c44" stop-opacity="0.302"/><stop offset="0.45" stop-color="#30302b" stop-opacity="0.188"/><stop offset="0.55" stop-color="#1b1b18" stop-opacity="0.11"/><stop offset="0.67" stop-color="#0c0c0a" stop-opacity="0.051"/><stop offset="0.8" stop-color="#030302" stop-opacity="0.012"/><stop offset="1" stop-opacity="0"/></radialGradient><radialGradient id="n" cx="-0.269" cy="440.228" r="7.393" gradientTransform="translate(0.488) scale(0.024 1)" xlink:href="#i"/><radialGradient id="o" cx="0.5" cy="1.939" r="20.108" gradientTransform="translate(-0.52 425.661) scale(0.032 0.033)" xlink:href="#i"/><radialGradient id="p" cx="-1.997" cy="243.831" r="7.396" gradientTransform="translate(0.436) scale(0.128 1)" xlink:href="#k"/><radialGradient id="q" cx="-3.744" cy="43.367" r="7.262" gradientTransform="translate(0.085) scale(0.83 1)" xlink:href="#l"/><radialGradient id="r" cx="-3.744" cy="7026.438" r="116.561" gradientTransform="translate(0.474) scale(0.052 1)" xlink:href="#m"/></defs><g transform="translate(0 -41.26)" style="isolation:isolate"><g clip-path="url(#a)"><rect width="378.13" height="344" rx="20.81" transform="translate(0 41.26)" fill="#111"/><path d="M357.33,2a18.83,18.83,0,0,1,18.8,18.81V323.19A18.83,18.83,0,0,1,357.33,342H20.81A18.83,18.83,0,0,1,2,323.19V20.81A18.83,18.83,0,0,1,20.81,2H357.33m0-2H20.81A20.81,20.81,0,0,0,0,20.81V323.19A20.81,20.81,0,0,0,20.81,344H357.33a20.81,20.81,0,0,0,20.8-20.81V20.81A20.81,20.81,0,0,0,357.33,0Z" transform="translate(0 41.26)" fill="url(#b)"/><path d="M183.72,118h0V76.51h71.92C241.28,48.77,214.54,35,183.84,35a82.885,82.885,0,0,0-71.834,41.55l35.834,62.19Z" transform="translate(0 41.26)" fill="#db4437"/><path d="M183.72,76.51V118h0l36,20.75L183.81,201h0a83,83,0,0,0,83-83c0-15.14-4.1-27.85-11.17-41.49Z" transform="translate(0 41.26)" fill="#ffcd40"/><path d="M183.72,118h0l-35.88,20.75L112,76.56A82.92,82.92,0,0,0,183.83,201l35.88-62.25Z" transform="translate(0 41.26)" fill="#0f9d58"/><g opacity="0.4"><path d="M111.91,117.81l52.59,52.6L147.89,180Z" fill="url(#c)" style="mix-blend-mode:multiply;isolation:isolate"/></g><g opacity="0.4"><path d="M183.91,242.26l19.25-71.85,16.62,9.6Z" fill="url(#d)" style="mix-blend-mode:multiply;isolation:isolate"/></g><g opacity="0.4"><path d="M255.68,117.68l-71.84,19.25V117.75Z" fill="url(#e)" style="mix-blend-mode:multiply;isolation:isolate"/></g><circle cx="41.5" cy="41.5" r="41.5" transform="translate(142.34 117.75)" fill="#f1f1f1"/><circle cx="30.43" cy="30.43" r="30.43" transform="translate(153.41 128.82)" fill="#4285f4"/><g opacity="0.04" style="mix-blend-mode:multiply;isolation:isolate"><path d="M183.84,35.23a82.48,82.48,0,1,1-32.22,6.5,82.48,82.48,0,0,1,32.22-6.5m0-.23a83,83,0,1,0,83,83A83,83,0,0,0,183.84,35Z" transform="translate(0 41.26)"/></g><text transform="translate(131.85 294.19)" fill="#e0cb73" font-size="21" font-family="Prompt-Medium, Prompt" font-weight="500"><tspan x="0" y="0">เข้าสู่ </tspan><tspan y="0">Joker</tspan></text><text transform="translate(96.73 338.48)" fill="#fff" font-size="46" font-family="Prompt-Light, Prompt" font-weight="300"><tspan x="0" y="0">Chrome</tspan></text><path d="M153,215.86A125.87,125.87,0,0,0,202.85,258H309.2A125.36,125.36,0,1,0,153,73.07Z" transform="translate(0 41.26)" opacity="0.36" fill="url(#f)" style="mix-blend-mode:screen;isolation:isolate"/><path d="M344.88,42.82,167.12,170.26H19.08L236.85,42.82Z" fill-rule="evenodd" opacity="0.44" fill="url(#g)" style="mix-blend-mode:overlay;isolation:isolate"/><path d="M361.04,42.82,228.53,170.26H118.18L315.95,42.82Z" fill-rule="evenodd" opacity="0.51" fill="url(#h)" style="mix-blend-mode:overlay;isolation:isolate"/><path d="M364,1.73c0,2.39-81.28,4.33-181.54,4.33S.92,4.12.92,1.73,82.2-2.6,182.46-2.6,364-.66,364,1.73Z" transform="translate(0 41.26)" fill="url(#i)" style="mix-blend-mode:screen;isolation:isolate"/><path d="M317.83,1.73c0,2.39-60.61,4.33-135.37,4.33S47.09,4.12,47.09,1.73,107.7-2.6,182.46-2.6,317.83-.66,317.83,1.73Z" transform="translate(0 41.26)" fill="url(#j)" style="mix-blend-mode:screen;isolation:isolate"/><ellipse cx="60.24" cy="7.74" rx="60.24" ry="7.74" transform="translate(122.22 35.25)" fill="url(#k)" style="mix-blend-mode:screen;isolation:isolate"/><ellipse cx="51.82" cy="42.99" rx="51.82" ry="42.99" transform="translate(130.64 0)" fill="url(#l)" style="mix-blend-mode:screen;isolation:isolate"/><ellipse cx="51.82" cy="2.69" rx="51.82" ry="2.69" transform="translate(130.64 40.3)" fill="url(#m)" style="mix-blend-mode:color-dodge;isolation:isolate"/><path d="M364,343.73c0,2.39-81.28,4.33-181.54,4.33S.92,346.12.92,343.73s81.28-4.33,181.54-4.33S364,341.34,364,343.73Z" transform="translate(0 41.26)" fill="url(#n)" style="mix-blend-mode:screen;isolation:isolate"/><path d="M317.83,343.73c0,2.39-60.61,4.33-135.37,4.33s-135.37-1.94-135.37-4.33,60.61-4.33,135.37-4.33S317.83,341.34,317.83,343.73Z" transform="translate(0 41.26)" fill="url(#o)" style="mix-blend-mode:screen;isolation:isolate"/><ellipse cx="60.24" cy="7.74" rx="60.24" ry="7.74" transform="translate(122.22 377.25)" fill="url(#p)" style="mix-blend-mode:screen;isolation:isolate"/><ellipse cx="51.82" cy="42.99" rx="51.82" ry="42.99" transform="translate(130.64 342)" fill="url(#q)" style="mix-blend-mode:screen;isolation:isolate"/><ellipse cx="51.82" cy="2.69" rx="51.82" ry="2.69" transform="translate(130.64 382.3)" fill="url(#r)" style="mix-blend-mode:color-dodge;isolation:isolate"/></g></g></svg>