<svg xmlns="http://www.w3.org/2000/svg" xmlns:xlink="http://www.w3.org/1999/xlink" viewBox="0 0 325.92 56.28"><defs><style>.cls-1{fill:url(#New_Gradient_Swatch_5);}.cls-2{fill:url(#New_Gradient_Swatch_5-2);}.cls-3{fill:url(#New_Gradient_Swatch_5-3);}.cls-4{fill:url(#New_Gradient_Swatch_5-4);}.cls-5{fill:url(#New_Gradient_Swatch_5-5);}.cls-6{fill:url(#New_Gradient_Swatch_5-6);}.cls-7{fill:url(#New_Gradient_Swatch_5-7);}.cls-8{fill:url(#New_Gradient_Swatch_5-8);}.cls-9{fill:url(#New_Gradient_Swatch_5-9);}</style><linearGradient id="New_Gradient_Swatch_5" x1="21.86" y1="56.28" x2="21.86" y2="15.51" gradientUnits="userSpaceOnUse"><stop offset="0" stop-color="#cf9b2c"/><stop offset="0.01" stop-color="#be8c27"/><stop offset="0.03" stop-color="#a0711f"/><stop offset="0.05" stop-color="#885c19"/><stop offset="0.07" stop-color="#774d15"/><stop offset="0.1" stop-color="#6d4412"/><stop offset="0.13" stop-color="#6a4111"/><stop offset="0.15" stop-color="#6e4413"/><stop offset="0.54" stop-color="#ca8b39"/><stop offset="0.55" stop-color="#cd9241"/><stop offset="0.67" stop-color="#e8ca89"/><stop offset="0.76" stop-color="#f9edb6"/><stop offset="0.8" stop-color="#fffbc7"/><stop offset="0.99" stop-color="#fdc53e"/></linearGradient><linearGradient id="New_Gradient_Swatch_5-2" x1="60.97" y1="55.2" x2="60.97" y2="15.51" xlink:href="#New_Gradient_Swatch_5"/><linearGradient id="New_Gradient_Swatch_5-3" x1="98.06" y1="56.28" x2="98.06" y2="15.51" xlink:href="#New_Gradient_Swatch_5"/><linearGradient id="New_Gradient_Swatch_5-4" x1="141.42" y1="56.28" x2="141.42" y2="16.6" xlink:href="#New_Gradient_Swatch_5"/><linearGradient id="New_Gradient_Swatch_5-5" x1="152.79" y1="11.83" x2="152.79" y2="0" xlink:href="#New_Gradient_Swatch_5"/><linearGradient id="New_Gradient_Swatch_5-6" x1="176.38" y1="55.2" x2="176.38" y2="0.94" xlink:href="#New_Gradient_Swatch_5"/><linearGradient id="New_Gradient_Swatch_5-7" x1="212.21" y1="55.2" x2="212.21" y2="16.6" xlink:href="#New_Gradient_Swatch_5"/><linearGradient id="New_Gradient_Swatch_5-8" x1="256.66" y1="56.28" x2="256.66" y2="15.51" xlink:href="#New_Gradient_Swatch_5"/><linearGradient id="New_Gradient_Swatch_5-9" x1="304.06" y1="56.28" x2="304.06" y2="15.51" xlink:href="#New_Gradient_Swatch_5"/></defs><title>download</title><g id="Layer_2" data-name="Layer 2"><g id="Layer_1-2" data-name="Layer 1"><path class="cls-1" d="M5.19,51.3Q0,46.32,0,36.73q0-10,6-15.62t16.52-5.6q10.89,0,16.06,5t5.16,13.28V55.2H32.83V33.77c0-3.18-.81-5.59-2.42-7.25S26.17,24,22.51,24a10.71,10.71,0,0,0-8.22,3.24q-3,3.26-3,9.46,0,5.7,2.48,8.37c1.67,1.78,4.2,2.67,7.62,2.67a14.11,14.11,0,0,0,4.9-.8v8.37a21.92,21.92,0,0,1-6.92.94Q10.38,56.28,5.19,51.3Z"/><path class="cls-2" d="M62.92,31.17q0-3.75-1.59-5.45T55.78,24A17.11,17.11,0,0,0,48.06,26v-8.3a20.72,20.72,0,0,1,4.65-1.52,26.23,26.23,0,0,1,5.66-.65q7.58,0,11.55,4t4,11.69v24h-11Z"/><path class="cls-3" d="M80,53.18V44.66q4.47,3.11,12.26,3.11,6.06,0,9.38-2.93t3.32-8.91q0-6-3.32-8.94t-9.38-3q-7.5,0-12,3.17V18.69a19.13,19.13,0,0,1,6.27-2.38,39,39,0,0,1,8.09-.8q10.09,0,15.83,5.38t5.74,15q0,9.68-5.74,15T94.6,56.28Q85,56.28,80,53.18Z"/><path class="cls-4" d="M129.16,54.33A12.94,12.94,0,0,1,124,49a16.1,16.1,0,0,1-1.77-7.57V16.6h11V40.77q0,7,7.43,7a10.26,10.26,0,0,0,5.23-1.27,11.19,11.19,0,0,0,3.86-3.93v-26h10.9V55.2H150.23V50.87a16.55,16.55,0,0,1-6,4,18.84,18.84,0,0,1-7,1.37A15.93,15.93,0,0,1,129.16,54.33Z"/><path class="cls-5" d="M141.13,6.35a6.21,6.21,0,0,1,1.7-4.76Q144.53,0,148.21,0h16.23V6.85H152.9a2.17,2.17,0,0,0-1.56.47,2.16,2.16,0,0,0-.46,1.55v3h-9.75Z"/><path class="cls-6" d="M173.57,52.93a8.89,8.89,0,0,1-2.13-6.32V20.71A13.64,13.64,0,0,0,169.56,13a12.27,12.27,0,0,0-6.06-4.36V.94h25.76V9.38H177.64q4.77,3.67,4.77,11.54V43.65a3.41,3.41,0,0,0,.72,2.46,3.27,3.27,0,0,0,2.38.72H188V55.2h-8.37A8,8,0,0,1,173.57,52.93Z"/><path class="cls-7" d="M193.16,16.6h11V30.52L218.77,16.6h12.49l-10.39,9.88q5.63,1.59,7.9,4.91a15.35,15.35,0,0,1,2.27,8.8v15h-11V41.13a9.68,9.68,0,0,0-1.26-5.49,7.47,7.47,0,0,0-4.58-2.59l-10.1,9.45V55.2h-11Z"/><path class="cls-8" d="M241.11,53q-3.95-3.32-3.94-9.38a11.55,11.55,0,0,1,4.3-9.52q4.29-3.47,11.79-3.47a28.29,28.29,0,0,1,12,2.31V31.39a6.67,6.67,0,0,0-2.56-5.77c-1.71-1.26-4.46-1.88-8.26-1.88a33.26,33.26,0,0,0-6.93.72,26.61,26.61,0,0,0-6.06,2V18.25A27.63,27.63,0,0,1,248,16.31a45.1,45.1,0,0,1,8.44-.8q9.66,0,14.68,4.3a14.4,14.4,0,0,1,5,11.51V55.2h-10.9V40.84a21.11,21.11,0,0,0-9.81-2.16c-2.46,0-4.25.4-5.38,1.22a4.4,4.4,0,0,0-1.69,3.83,4.22,4.22,0,0,0,1.55,3.57,8.17,8.17,0,0,0,4.94,1.19,10.1,10.1,0,0,0,4-.72v7.57a23,23,0,0,1-7.21.94Q245,56.28,241.11,53Z"/><path class="cls-9" d="M287.39,51.3q-5.19-5-5.19-14.57,0-10,6-15.62t16.52-5.6q10.89,0,16.05,5t5.16,13.28V55.2H315V33.77c0-3.18-.81-5.59-2.42-7.25S308.37,24,304.71,24a10.73,10.73,0,0,0-8.23,3.24q-3,3.26-3,9.46,0,5.7,2.49,8.37t7.62,2.67a14.15,14.15,0,0,0,4.9-.8v8.37a21.92,21.92,0,0,1-6.92.94Q292.58,56.28,287.39,51.3Z"/></g></g></svg>