<svg xmlns="http://www.w3.org/2000/svg" xmlns:xlink="http://www.w3.org/1999/xlink" width="378.13" height="344" viewBox="0 0 378.13 344"><defs><clipPath id="a"><rect width="378.13" height="344" rx="20.73" transform="translate(0 41.26)" fill="none"/></clipPath><linearGradient id="b" x1="0.5" y1="1" x2="0.5" gradientUnits="objectBoundingBox"><stop offset="0" stop-color="#cf9b2c"/><stop offset="0.01" stop-color="#be8c27"/><stop offset="0.03" stop-color="#a0711f"/><stop offset="0.05" stop-color="#885c19"/><stop offset="0.07" stop-color="#774d15"/><stop offset="0.1" stop-color="#6d4412"/><stop offset="0.13" stop-color="#6a4111"/><stop offset="0.15" stop-color="#6e4413"/><stop offset="0.54" stop-color="#ca8b39"/><stop offset="0.55" stop-color="#cd9241"/><stop offset="0.67" stop-color="#e8ca89"/><stop offset="0.76" stop-color="#f9edb6"/><stop offset="0.8" stop-color="#fffbc7"/><stop offset="0.99" stop-color="#fdc53e"/></linearGradient><radialGradient id="c" cx="0.37" cy="0.524" r="0.524" gradientTransform="translate(-36.582 -0.47) rotate(180) scale(1.046 1)" gradientUnits="objectBoundingBox"><stop offset="0" stop-color="#ff2626"/><stop offset="0.14" stop-color="#cf1f1f"/><stop offset="0.38" stop-color="#871414"/><stop offset="0.59" stop-color="#4d0b0b"/><stop offset="0.77" stop-color="#230505"/><stop offset="0.92" stop-color="#090101"/><stop offset="1"/></radialGradient><linearGradient id="d" x1="0.795" y1="-0.427" x2="0.205" y2="1.427" gradientUnits="objectBoundingBox"><stop offset="0" stop-color="#fff"/><stop offset="0.65" stop-color="#fff" stop-opacity="0"/></linearGradient><linearGradient id="e" x1="0.827" y1="-0.267" x2="0.173" y2="1.267" xlink:href="#d"/><radialGradient id="f" cx="0.499" cy="0.577" r="26.983" gradientTransform="translate(-1.102 25.152) scale(0.024 0.025)" gradientUnits="objectBoundingBox"><stop offset="0" stop-color="#ffa800"/><stop offset="0.07" stop-color="#d38b00" stop-opacity="0.831"/><stop offset="0.16" stop-color="#a26b00" stop-opacity="0.639"/><stop offset="0.26" stop-color="#774e00" stop-opacity="0.471"/><stop offset="0.36" stop-color="#523600" stop-opacity="0.322"/><stop offset="0.47" stop-color="#342200" stop-opacity="0.2"/><stop offset="0.58" stop-color="#1d1300" stop-opacity="0.11"/><stop offset="0.7" stop-color="#0d0800" stop-opacity="0.051"/><stop offset="0.83" stop-color="#030200" stop-opacity="0.012"/><stop offset="1" stop-opacity="0"/></radialGradient><radialGradient id="g" cx="0.502" cy="0.577" r="20.108" gradientTransform="translate(-1.492 24.934) scale(0.032 0.033)" xlink:href="#f"/><radialGradient id="h" cx="0.502" cy="0.542" r="5.029" gradientTransform="translate(-0.257 10.396) scale(0.128 0.132)" gradientUnits="objectBoundingBox"><stop offset="0" stop-color="#ffff87"/><stop offset="0.02" stop-color="#f2f280" stop-opacity="0.949"/><stop offset="0.09" stop-color="#c0c066" stop-opacity="0.749"/><stop offset="0.17" stop-color="#92924d" stop-opacity="0.569"/><stop offset="0.25" stop-color="#6b6b39" stop-opacity="0.42"/><stop offset="0.34" stop-color="#4a4a27" stop-opacity="0.29"/><stop offset="0.44" stop-color="#2f2f19" stop-opacity="0.18"/><stop offset="0.54" stop-color="#1a1a0e" stop-opacity="0.102"/><stop offset="0.65" stop-color="#0b0b06" stop-opacity="0.039"/><stop offset="0.79" stop-color="#030301" stop-opacity="0.012"/><stop offset="1" stop-opacity="0"/></radialGradient><radialGradient id="i" cx="0.604" cy="0.503" r="0.799" gradientTransform="translate(5.276 0.445) scale(0.83 0.818)" gradientUnits="objectBoundingBox"><stop offset="0" stop-color="#ffa800"/><stop offset="0.01" stop-color="#faa500" stop-opacity="0.98"/><stop offset="0.09" stop-color="#c68300" stop-opacity="0.78"/><stop offset="0.17" stop-color="#976400" stop-opacity="0.588"/><stop offset="0.26" stop-color="#6e4900" stop-opacity="0.431"/><stop offset="0.35" stop-color="#4c3200" stop-opacity="0.302"/><stop offset="0.45" stop-color="#302000" stop-opacity="0.188"/><stop offset="0.55" stop-color="#1b1200" stop-opacity="0.11"/><stop offset="0.67" stop-color="#0c0800" stop-opacity="0.051"/><stop offset="0.8" stop-color="#030200" stop-opacity="0.012"/><stop offset="1" stop-opacity="0"/></radialGradient><radialGradient id="j" cx="0.604" cy="-19.573" r="12.822" gradientTransform="translate(29.356 -4061.769) scale(0.052 0.091)" gradientUnits="objectBoundingBox"><stop offset="0" stop-color="#ffffe2"/><stop offset="0.01" stop-color="#fafade" stop-opacity="0.98"/><stop offset="0.09" stop-color="#c6c6b0" stop-opacity="0.78"/><stop offset="0.17" stop-color="#979786" stop-opacity="0.588"/><stop offset="0.26" stop-color="#6e6e62" stop-opacity="0.431"/><stop offset="0.35" stop-color="#4c4c44" stop-opacity="0.302"/><stop offset="0.45" stop-color="#30302b" stop-opacity="0.188"/><stop offset="0.55" stop-color="#1b1b18" stop-opacity="0.11"/><stop offset="0.67" stop-color="#0c0c0a" stop-opacity="0.051"/><stop offset="0.8" stop-color="#030302" stop-opacity="0.012"/><stop offset="1" stop-opacity="0"/></radialGradient><radialGradient id="k" cx="-1.128" cy="440.226" r="7.393" gradientTransform="translate(0.488) scale(0.024 1)" xlink:href="#f"/><radialGradient id="l" cx="0.502" cy="1.939" r="20.108" gradientTransform="translate(-1.492 425.66) scale(0.032 0.033)" xlink:href="#f"/><radialGradient id="m" cx="-0.295" cy="243.831" r="7.396" gradientTransform="translate(0.436) scale(0.128 1)" xlink:href="#h"/><radialGradient id="n" cx="30.964" cy="43.367" r="7.262" gradientTransform="translate(0.085) scale(0.83 1)" xlink:href="#i"/><radialGradient id="o" cx="30.964" cy="7026.438" r="116.561" gradientTransform="translate(0.474) scale(0.052 1)" xlink:href="#j"/></defs><g transform="translate(0 -41.26)" style="isolation:isolate"><g clip-path="url(#a)"><rect width="378.13" height="344" rx="20.73" transform="translate(0 41.26)" fill="#111"/><path d="M357.41,2a18.75,18.75,0,0,1,18.72,18.73V323.27A18.75,18.75,0,0,1,357.41,342H20.73A18.75,18.75,0,0,1,2,323.27V20.73A18.75,18.75,0,0,1,20.73,2H357.41m0-2H20.73A20.73,20.73,0,0,0,0,20.73V323.27A20.73,20.73,0,0,0,20.73,344H357.41a20.72,20.72,0,0,0,20.72-20.73V20.73A20.72,20.72,0,0,0,357.41,0Z" transform="translate(0 41.26)" fill="url(#b)"/><path d="M233.77,125c.24,25.63,22.48,34.16,22.73,34.27a92.709,92.709,0,0,1-11.72,24.09c-7.06,10.32-14.39,20.6-25.93,20.81-11.34.21-15-6.73-27.95-6.73s-17,6.52-27.75,6.94c-11.14.42-19.62-11.16-26.74-21.44-14.55-21-25.66-59.42-10.74-85.33,7.42-12.87,20.67-21,35.05-21.23,10.94-.21,21.27,7.36,27.95,7.36S207.9,74.62,221.1,76c5.52.23,21,2.23,31,16.8-.8.5-18.49,10.8-18.3,32.23M212.46,62c5.91-7.16,9.89-17.12,8.8-27-8.52.34-18.83,5.68-24.94,12.84-5.48,6.33-10.28,16.47-9,26.19,9.5.74,19.21-4.82,25.13-12" transform="translate(0 41.26)" fill="#fff"/><text transform="translate(135.57 294.19)" fill="#e0cb73" font-size="21" font-family="Prompt-Medium, Prompt" font-weight="500"><tspan x="0" y="0">เข้าสู่ </tspan><tspan y="0">Joker</tspan></text><text transform="translate(150.77 338.48)" fill="#fff" font-size="46" font-family="Prompt-Light, Prompt" font-weight="300"><tspan x="0" y="0">iOS</tspan></text><path d="M132.57,198.86A125.8,125.8,0,0,0,182.42,241H288.77A125.36,125.36,0,1,0,132.57,56.07Z" transform="translate(0 41.26)" opacity="0.36" fill="url(#c)" style="mix-blend-mode:screen;isolation:isolate"/><path d="M335.44,43.82,157.69,171.26H9.65L227.41,43.82Z" fill-rule="evenodd" opacity="0.44" fill="url(#d)" style="mix-blend-mode:overlay;isolation:isolate"/><path d="M351.61,43.82,219.1,171.26H108.75L306.52,43.82Z" fill-rule="evenodd" opacity="0.51" fill="url(#e)" style="mix-blend-mode:overlay;isolation:isolate"/><path d="M382.57,1.73c0,2.39-81.28,4.33-181.54,4.33S19.49,4.12,19.49,1.73,100.77-2.6,201-2.6,382.57-.66,382.57,1.73Z" transform="translate(0 41.26)" fill="url(#f)" style="mix-blend-mode:screen;isolation:isolate"/><path d="M336.4,1.73c0,2.39-60.61,4.33-135.37,4.33S65.66,4.12,65.66,1.73,126.27-2.6,201-2.6,336.4-.66,336.4,1.73Z" transform="translate(0 41.26)" fill="url(#g)" style="mix-blend-mode:screen;isolation:isolate"/><ellipse cx="60.24" cy="7.74" rx="60.24" ry="7.74" transform="translate(140.79 35.25)" fill="url(#h)" style="mix-blend-mode:screen;isolation:isolate"/><ellipse cx="51.82" cy="42.99" rx="51.82" ry="42.99" transform="translate(149.21 0)" fill="url(#i)" style="mix-blend-mode:screen;isolation:isolate"/><ellipse cx="51.82" cy="2.69" rx="51.82" ry="2.69" transform="translate(149.21 40.3)" fill="url(#j)" style="mix-blend-mode:color-dodge;isolation:isolate"/><path d="M382.57,343.73c0,2.39-81.28,4.33-181.54,4.33s-181.54-1.94-181.54-4.33S100.77,339.4,201,339.4,382.57,341.34,382.57,343.73Z" transform="translate(0 41.26)" fill="url(#k)" style="mix-blend-mode:screen;isolation:isolate"/><path d="M336.4,343.73c0,2.39-60.61,4.33-135.37,4.33s-135.37-1.94-135.37-4.33S126.27,339.4,201,339.4,336.4,341.34,336.4,343.73Z" transform="translate(0 41.26)" fill="url(#l)" style="mix-blend-mode:screen;isolation:isolate"/><ellipse cx="60.24" cy="7.74" rx="60.24" ry="7.74" transform="translate(140.79 377.25)" fill="url(#m)" style="mix-blend-mode:screen;isolation:isolate"/><ellipse cx="51.82" cy="42.99" rx="51.82" ry="42.99" transform="translate(149.21 342)" fill="url(#n)" style="mix-blend-mode:screen;isolation:isolate"/><ellipse cx="51.82" cy="2.69" rx="51.82" ry="2.69" transform="translate(149.21 382.3)" fill="url(#o)" style="mix-blend-mode:color-dodge;isolation:isolate"/></g></g></svg>