<svg xmlns="http://www.w3.org/2000/svg" xmlns:xlink="http://www.w3.org/1999/xlink" viewBox="0 0 204.62 54"><defs><style>.cls-1{fill:url(#linear-gradient);}.cls-2{fill:url(#linear-gradient-2);}.cls-3{fill:url(#linear-gradient-3);}.cls-4{fill:url(#linear-gradient-4);}.cls-5{fill:url(#linear-gradient-5);}.cls-6{fill:url(#linear-gradient-6);}.cls-7{fill:url(#linear-gradient-7);}.cls-8{fill:url(#linear-gradient-8);}.cls-9{fill:url(#linear-gradient-9);}</style><linearGradient id="linear-gradient" x1="9.86" y1="53.17" x2="9.86" y2="11.65" gradientUnits="userSpaceOnUse"><stop offset="0" stop-color="#797979"/><stop offset="0.02" stop-color="#828282"/><stop offset="0.18" stop-color="#dbdbdb"/><stop offset="0.25" stop-color="#fff"/><stop offset="0.45" stop-color="#d6d6d6"/><stop offset="0.57" stop-color="#c2c2c2"/><stop offset="0.67" stop-color="#cacaca"/><stop offset="0.82" stop-color="#dfdfdf"/><stop offset="1" stop-color="#fff"/></linearGradient><linearGradient id="linear-gradient-2" x1="37.85" y1="54" x2="37.85" y2="13.75" xlink:href="#linear-gradient"/><linearGradient id="linear-gradient-3" x1="70.26" y1="54" x2="70.26" y2="22.8" xlink:href="#linear-gradient"/><linearGradient id="linear-gradient-4" x1="93.78" y1="53.17" x2="93.78" y2="11.65" xlink:href="#linear-gradient"/><linearGradient id="linear-gradient-5" x1="121.31" y1="54" x2="121.31" y2="23.63" xlink:href="#linear-gradient"/><linearGradient id="linear-gradient-6" x1="155.62" y1="54" x2="155.62" y2="22.8" xlink:href="#linear-gradient"/><linearGradient id="linear-gradient-7" x1="163.54" y1="19.99" x2="163.54" y2="10.6" xlink:href="#linear-gradient"/><linearGradient id="linear-gradient-8" x1="165.7" y1="7.79" x2="165.7" y2="0" xlink:href="#linear-gradient"/><linearGradient id="linear-gradient-9" x1="189.94" y1="54" x2="189.94" y2="23.63" xlink:href="#linear-gradient"/></defs><title>promotion</title><g id="Layer_2" data-name="Layer 2"><g id="Layer_1-2" data-name="Layer 1"><path class="cls-1" d="M7.7,51.43A6.82,6.82,0,0,1,6.07,46.6V26.78A10.4,10.4,0,0,0,4.64,20.9,9.41,9.41,0,0,0,0,17.56V11.65H19.71v6.46H10.82q3.64,2.82,3.65,8.83v17.4A2.56,2.56,0,0,0,15,46.21a2.49,2.49,0,0,0,1.82.56h1.93v6.4h-6.4A6.09,6.09,0,0,1,7.7,51.43Z"/><path class="cls-2" d="M29.87,52.37a12.57,12.57,0,0,1-5.3-4.5,11.63,11.63,0,0,1-1.88-6.51V23.63h8.4V40.8a6.84,6.84,0,0,0,1.68,5,6.83,6.83,0,0,0,5.11,1.73A6.76,6.76,0,0,0,43,45.75a6.92,6.92,0,0,0,1.65-5v-27H53V41.36a11.63,11.63,0,0,1-1.88,6.51,12.57,12.57,0,0,1-5.3,4.5A18.24,18.24,0,0,1,37.88,54,18.39,18.39,0,0,1,29.87,52.37Z"/><path class="cls-3" d="M63.19,53.37a14.71,14.71,0,0,1-5.27-1.91v-6.4a20.8,20.8,0,0,0,5.44,2.2A21.85,21.85,0,0,0,68.8,48a11.8,11.8,0,0,0,4.28-.58,2.08,2.08,0,0,0,1.35-2.07,2.23,2.23,0,0,0-1.3-2,30.68,30.68,0,0,0-4.83-1.82l-1.38-.44a18.37,18.37,0,0,1-7-3.59,7.44,7.44,0,0,1-2.27-5.74,7.54,7.54,0,0,1,3.43-6.6c2.28-1.56,5.35-2.35,9.22-2.35a26.89,26.89,0,0,1,6.07.67,16.37,16.37,0,0,1,4.7,1.71v6.57a15.11,15.11,0,0,0-4.39-2A18.74,18.74,0,0,0,71.5,29c-3.57,0-5.35.91-5.35,2.71a2.24,2.24,0,0,0,1.27,2,24.76,24.76,0,0,0,4.52,1.71l2,.61a21.77,21.77,0,0,1,5.44,2.43,7.48,7.48,0,0,1,2.73,3,9.44,9.44,0,0,1,.78,4,7.16,7.16,0,0,1-3.29,6.13Q76.31,54,69.79,54A35.6,35.6,0,0,1,63.19,53.37Z"/><path class="cls-4" d="M91.63,51.43A6.77,6.77,0,0,1,90,46.6V26.78a10.39,10.39,0,0,0-1.44-5.88,9.34,9.34,0,0,0-4.63-3.34V11.65h19.71v6.46H94.75q3.65,2.82,3.64,8.83v17.4a2.61,2.61,0,0,0,.55,1.87,2.52,2.52,0,0,0,1.83.56h1.93v6.4H96.29A6.06,6.06,0,0,1,91.63,51.43Z"/><path class="cls-5" d="M119.15,53a12.66,12.66,0,0,1-4.52-3.09v3.31h-8V23.63H115V43.51a7.48,7.48,0,0,0,7,4q5.69,0,5.69-5.35V23.63H136v19a12.59,12.59,0,0,1-1.32,5.79,9.77,9.77,0,0,1-3.92,4.09A12.37,12.37,0,0,1,124.51,54,14.18,14.18,0,0,1,119.15,53Z"/><path class="cls-6" d="M147.75,52.62a11.08,11.08,0,0,1-5-3.87,9.67,9.67,0,0,1-1.71-5.63V41.74a8.25,8.25,0,0,1,.77-3.59A28.61,28.61,0,0,1,144,34.56a15.69,15.69,0,0,0,1.27-2,2.92,2.92,0,0,0,.39-1.35c0-1-.63-1.54-1.88-1.54h-3.09V23.63h8a5.5,5.5,0,0,1,4,1.44,5,5,0,0,1,1.49,3.75,7.58,7.58,0,0,1-.61,3.07,21.58,21.58,0,0,1-1.82,3.23A26.86,26.86,0,0,0,150,38.21a6.54,6.54,0,0,0-.58,2.76v1.16a5,5,0,0,0,1.55,4,6.4,6.4,0,0,0,4.41,1.38A6,6,0,0,0,160,45.8a6.9,6.9,0,0,0,1.58-4.89q0-6.73-5.25-6.73v-4l5.36-7.35h8.89l-6,8.23a9.16,9.16,0,0,1,4.17,3.89A13.35,13.35,0,0,1,170,41a12.94,12.94,0,0,1-1.74,6.74,11.85,11.85,0,0,1-5.05,4.58A17.16,17.16,0,0,1,155.37,54,19.41,19.41,0,0,1,147.75,52.62Z"/><path class="cls-7" d="M152.78,14.63v-4h7.51v2.71a1.5,1.5,0,0,0,.3,1.07,1.56,1.56,0,0,0,1.13.31h12.59V20H158.08C154.54,20,152.78,18.2,152.78,14.63Z"/><path class="cls-8" d="M161.94,0h7.51V7.79h-7.51Z"/><path class="cls-9" d="M180.55,52.51a9.91,9.91,0,0,1-4-4.09,12.36,12.36,0,0,1-1.35-5.79v-19h8.39v18.5q0,5.35,5.69,5.35a8,8,0,0,0,4-1,8.62,8.62,0,0,0,3-3V23.63h8.33V53.17h-8V49.86A12.69,12.69,0,0,1,192.12,53a14.4,14.4,0,0,1-5.39,1A12.24,12.24,0,0,1,180.55,52.51Z"/></g></g></svg>